<svg width="75" height="76" viewBox="0 0 75 76" fill="none" xmlns="http://www.w3.org/2000/svg">
<path fill-rule="evenodd" clip-rule="evenodd" d="M34.5 72.5C51.897 72.5 66 58.397 66 41C66 23.603 51.897 9.5 34.5 9.5C17.103 9.5 3 23.603 3 41C3 58.397 17.103 72.5 34.5 72.5ZM34.5 75.5C53.5538 75.5 69 60.0538 69 41C69 21.9462 53.5538 6.5 34.5 6.5C15.4462 6.5 0 21.9462 0 41C0 60.0538 15.4462 75.5 34.5 75.5Z" fill="white"/>
<path fill-rule="evenodd" clip-rule="evenodd" d="M9.76751 18.7113C15.6492 22.2143 24.503 24.5001 34.5 24.5001C44.4969 24.5001 53.3507 22.2143 59.2324 18.7113L60.7675 21.2888C54.312 25.1335 44.8938 27.5001 34.5 27.5001C24.1061 27.5001 14.6879 25.1335 8.23242 21.2888L9.76751 18.7113Z" fill="white"/>
<path fill-rule="evenodd" clip-rule="evenodd" d="M34.4535 57.5C24.4734 57.5 15.6347 59.765 9.76348 63.2359L8.23682 60.6534C14.6802 56.8443 24.0801 54.5 34.4535 54.5C44.8789 54.5 54.322 56.8679 60.7683 60.7116L59.232 63.2884C53.3617 59.7882 44.4846 57.5 34.4535 57.5Z" fill="white"/>
<path fill-rule="evenodd" clip-rule="evenodd" d="M44.5682 64.0075C47.5598 58.2735 49.5 50.144 49.5 41C49.5 31.856 47.5598 23.7265 44.5682 17.9925C41.5008 12.1134 37.789 9.5 34.5 9.5C31.211 9.5 27.4992 12.1134 24.4318 17.9925C21.4402 23.7265 19.5 31.856 19.5 41C19.5 50.144 21.4402 58.2735 24.4318 64.0075C27.4992 69.8866 31.211 72.5 34.5 72.5C37.789 72.5 41.5008 69.8866 44.5682 64.0075ZM34.5 75.5C44.4411 75.5 52.5 60.0538 52.5 41C52.5 21.9462 44.4411 6.5 34.5 6.5C24.5589 6.5 16.5 21.9462 16.5 41C16.5 60.0538 24.5589 75.5 34.5 75.5Z" fill="white"/>
<path d="M75 14.0849C75 21.0729 68.3636 29.7748 63.3323 35.3265C62.7509 35.968 61.7491 35.968 61.1677 35.3265C56.1364 29.7748 49.5 21.0729 49.5 14.0849C49.5 6.58217 55.2084 0.5 62.25 0.5C69.2916 0.5 75 6.58217 75 14.0849Z" fill="#4C0FFB"/>
<path fill-rule="evenodd" clip-rule="evenodd" d="M68.4933 23.6797C70.6954 20.0771 72 16.7373 72 14.0849C72 8.05693 67.4584 3.5 62.25 3.5C57.0416 3.5 52.5 8.05693 52.5 14.0849C52.5 16.7373 53.8046 20.0771 56.0067 23.6797C57.8314 26.6646 60.1079 29.5677 62.25 32.028C64.3921 29.5677 66.6686 26.6646 68.4933 23.6797ZM63.3323 35.3265C68.3636 29.7748 75 21.0729 75 14.0849C75 6.58217 69.2916 0.5 62.25 0.5C55.2084 0.5 49.5 6.58217 49.5 14.0849C49.5 21.0729 56.1364 29.7748 61.1677 35.3265C61.7491 35.968 62.7509 35.968 63.3323 35.3265Z" fill="white"/>
<path d="M75 14.0849C75 21.0729 68.3636 29.7748 63.3323 35.3265C62.7509 35.968 61.7491 35.968 61.1677 35.3265C56.1364 29.7748 49.5 21.0729 49.5 14.0849C49.5 6.58217 55.2084 0.5 62.25 0.5C69.2916 0.5 75 6.58217 75 14.0849Z" fill="#9BF9FF" fill-opacity="0.4"/>
<path fill-rule="evenodd" clip-rule="evenodd" d="M68.4933 23.6797C70.6954 20.0771 72 16.7373 72 14.0849C72 8.05693 67.4584 3.5 62.25 3.5C57.0416 3.5 52.5 8.05693 52.5 14.0849C52.5 16.7373 53.8046 20.0771 56.0067 23.6797C57.8314 26.6646 60.1079 29.5677 62.25 32.028C64.3921 29.5677 66.6686 26.6646 68.4933 23.6797ZM63.3323 35.3265C68.3636 29.7748 75 21.0729 75 14.0849C75 6.58217 69.2916 0.5 62.25 0.5C55.2084 0.5 49.5 6.58217 49.5 14.0849C49.5 21.0729 56.1364 29.7748 61.1677 35.3265C61.7491 35.968 62.7509 35.968 63.3323 35.3265Z" fill="#9BF9FF"/>
<path d="M67.5 14.75C67.5 17.6495 65.1495 20 62.25 20C59.3505 20 57 17.6495 57 14.75C57 11.8505 59.3505 9.5 62.25 9.5C65.1495 9.5 67.5 11.8505 67.5 14.75Z" fill="#4C0FFB"/>
<path fill-rule="evenodd" clip-rule="evenodd" d="M62.25 17C63.4926 17 64.5 15.9926 64.5 14.75C64.5 13.5074 63.4926 12.5 62.25 12.5C61.0074 12.5 60 13.5074 60 14.75C60 15.9926 61.0074 17 62.25 17ZM62.25 20C65.1495 20 67.5 17.6495 67.5 14.75C67.5 11.8505 65.1495 9.5 62.25 9.5C59.3505 9.5 57 11.8505 57 14.75C57 17.6495 59.3505 20 62.25 20Z" fill="#9BF9FF"/>
<path fill-rule="evenodd" clip-rule="evenodd" d="M33 74L33 8L36 8L36 74L33 74Z" fill="white"/>
<path fill-rule="evenodd" clip-rule="evenodd" d="M1.0459 39.5L67.5 39.5V42.5L1.0459 42.5V39.5Z" fill="white"/>
</svg>
