<svg width="75" height="76" viewBox="0 0 75 76" fill="none" xmlns="http://www.w3.org/2000/svg">
<path fill-rule="evenodd" clip-rule="evenodd" d="M12 72.0773C16.9706 72.0773 21 68.0478 21 63.0773C21 58.1067 16.9706 54.0773 12 54.0773C7.02944 54.0773 3 58.1067 3 63.0773C3 68.0478 7.02944 72.0773 12 72.0773ZM12 75.0773C18.6274 75.0773 24 69.7047 24 63.0773C24 56.4499 18.6274 51.0773 12 51.0773C5.37258 51.0773 0 56.4499 0 63.0773C0 69.7047 5.37258 75.0773 12 75.0773Z" fill="#9BF9FF"/>
<path fill-rule="evenodd" clip-rule="evenodd" d="M63 21.0773C67.9706 21.0773 72 17.0478 72 12.0773C72 7.10671 67.9706 3.07727 63 3.07727C58.0294 3.07727 54 7.10671 54 12.0773C54 17.0478 58.0294 21.0773 63 21.0773ZM63 24.0773C69.6274 24.0773 75 18.7047 75 12.0773C75 5.44985 69.6274 0.0772705 63 0.0772705C56.3726 0.0772705 51 5.44985 51 12.0773C51 18.7047 56.3726 24.0773 63 24.0773Z" fill="#9BF9FF"/>
<path fill-rule="evenodd" clip-rule="evenodd" d="M19.0919 19.9412C19.6777 20.527 19.6777 21.4767 19.0919 22.0625L8.48533 32.6691C7.89954 33.2549 6.94979 33.2549 6.364 32.6691C5.77822 32.0833 5.77822 31.1336 6.36401 30.5478L16.9706 19.9412C17.5564 19.3554 18.5061 19.3554 19.0919 19.9412Z" fill="white"/>
<path fill-rule="evenodd" clip-rule="evenodd" d="M19.0922 32.6692C18.5064 33.255 17.5566 33.255 16.9708 32.6692L6.36423 22.0626C5.77845 21.4768 5.77845 20.5271 6.36423 19.9413C6.95002 19.3555 7.89977 19.3555 8.48555 19.9413L19.0922 30.5479C19.6779 31.1337 19.6779 32.0834 19.0922 32.6692Z" fill="white"/>
<path opacity="0.4" fill-rule="evenodd" clip-rule="evenodd" d="M22.8639 3.44117C23.4497 2.85538 24.3994 2.85538 24.9852 3.44117L29.2279 7.68381L33.4705 3.44117C34.0563 2.85539 35.006 2.85539 35.5918 3.44117C36.1776 4.02696 36.1776 4.97671 35.5918 5.56249L31.3492 9.80513L35.5918 14.0478C36.1776 14.6336 36.1776 15.5833 35.5918 16.1691C35.006 16.7549 34.0563 16.7549 33.4705 16.1691L29.2279 11.9265L24.9852 16.1691C24.3994 16.7549 23.4497 16.7549 22.8639 16.1691C22.2781 15.5833 22.2781 14.6336 22.8639 14.0478L27.1065 9.80513L22.8639 5.56249C22.2781 4.9767 22.2781 4.02696 22.8639 3.44117Z" fill="#9BF9FF"/>
<path opacity="0.4" fill-rule="evenodd" clip-rule="evenodd" d="M36.3639 61.9412C36.9497 61.3554 37.8994 61.3554 38.4852 61.9412L42.7279 66.1838L46.9705 61.9412C47.5563 61.3554 48.506 61.3554 49.0918 61.9412C49.6776 62.527 49.6776 63.4767 49.0918 64.0625L44.8492 68.3051L49.0918 72.5478C49.6776 73.1336 49.6776 74.0833 49.0918 74.6691C48.506 75.2549 47.5563 75.2549 46.9705 74.6691L42.7279 70.4265L38.4852 74.6691C37.8994 75.2549 36.9497 75.2549 36.3639 74.6691C35.7781 74.0833 35.7781 73.1336 36.3639 72.5478L40.6065 68.3051L36.3639 64.0625C35.7781 63.4767 35.7781 62.527 36.3639 61.9412Z" fill="#9BF9FF"/>
<path fill-rule="evenodd" clip-rule="evenodd" d="M65.5919 45.4412C66.1777 46.027 66.1777 46.9767 65.5919 47.5625L54.9853 58.1691C54.3995 58.7549 53.4498 58.7549 52.864 58.1691C52.2782 57.5833 52.2782 56.6336 52.864 56.0478L63.4706 45.4412C64.0564 44.8554 65.0061 44.8554 65.5919 45.4412Z" fill="white"/>
<path fill-rule="evenodd" clip-rule="evenodd" d="M65.5922 58.1692C65.0064 58.755 64.0566 58.755 63.4708 58.1692L52.8642 47.5626C52.2784 46.9768 52.2784 46.0271 52.8642 45.4413C53.45 44.8555 54.3998 44.8555 54.9856 45.4413L65.5922 56.0479C66.1779 56.6337 66.1779 57.5834 65.5922 58.1692Z" fill="white"/>
<path fill-rule="evenodd" clip-rule="evenodd" d="M37.5001 22.5773H51.0001C51.8285 22.5773 52.5001 23.2488 52.5001 24.0773V37.5773C52.5001 38.4057 51.8285 39.0773 51.0001 39.0773C50.1717 39.0773 49.5001 38.4057 49.5001 37.5773V27.6986L20.5608 56.6379L18.4395 54.5166L47.3788 25.5773H37.5001C36.6717 25.5773 36.0001 24.9057 36.0001 24.0773C36.0001 23.2488 36.6717 22.5773 37.5001 22.5773Z" fill="#9BF9FF"/>
</svg>
