<svg width="75" height="71" viewBox="0 0 75 71" fill="none" xmlns="http://www.w3.org/2000/svg">
<path fill-rule="evenodd" clip-rule="evenodd" d="M37.5007 34.031C42.3503 34.031 46.2817 30.0996 46.2817 25.25C46.2817 20.4004 42.3503 16.469 37.5007 16.469C32.6511 16.469 28.7197 20.4004 28.7197 25.25C28.7197 30.0996 32.6511 34.031 37.5007 34.031ZM37.5007 36.281C43.593 36.281 48.5317 31.3423 48.5317 25.25C48.5317 19.1577 43.593 14.219 37.5007 14.219C31.4085 14.219 26.4697 19.1577 26.4697 25.25C26.4697 31.3423 31.4085 36.281 37.5007 36.281Z" fill="white"/>
<path fill-rule="evenodd" clip-rule="evenodd" d="M37.5007 26.6951C38.5577 26.6951 39.4146 25.8382 39.4146 24.7812C39.4146 23.7243 38.5577 22.8674 37.5007 22.8674C36.4438 22.8674 35.5869 23.7243 35.5869 24.7812C35.5869 25.8382 36.4438 26.6951 37.5007 26.6951ZM37.5007 28.9451C39.8003 28.9451 41.6646 27.0809 41.6646 24.7812C41.6646 22.4816 39.8003 20.6174 37.5007 20.6174C35.2011 20.6174 33.3369 22.4816 33.3369 24.7812C33.3369 27.0809 35.2011 28.9451 37.5007 28.9451Z" fill="white"/>
<path fill-rule="evenodd" clip-rule="evenodd" d="M37.5007 29.1406C34.572 29.1406 32.5635 31.0808 32.5635 33.0624H30.3135C30.3135 29.4695 33.7332 26.8906 37.5007 26.8906C41.2682 26.8906 44.688 29.4695 44.688 33.0624H42.438C42.438 31.0808 40.4294 29.1406 37.5007 29.1406Z" fill="white"/>
<path fill-rule="evenodd" clip-rule="evenodd" d="M50.253 27.7871C50.4154 26.9665 50.5005 26.1182 50.5005 25.25C50.5005 24.3818 50.4154 23.5335 50.253 22.7129L48.0458 23.1496C48.1799 23.8271 48.2505 24.5292 48.2505 25.25C48.2505 25.9708 48.1799 26.6729 48.0458 27.3504L50.253 27.7871ZM48.3109 32.4729L46.4412 31.2211C45.6557 32.3944 44.6451 33.405 43.4719 34.1905L44.7236 36.0601C46.1412 35.1111 47.3618 33.8905 48.3109 32.4729ZM40.0378 38.0023L39.6011 35.7951C38.9236 35.9291 38.2215 35.9998 37.5007 35.9998C36.7799 35.9998 36.0778 35.9291 35.4003 35.7951L34.9637 38.0023C35.7842 38.1646 36.6325 38.2498 37.5007 38.2498C38.3689 38.2498 39.2172 38.1646 40.0378 38.0023ZM30.2779 36.0601L31.5296 34.1905C30.3563 33.405 29.3457 32.3944 28.5603 31.2211L26.6906 32.4729C27.6397 33.8905 28.8602 35.1111 30.2779 36.0601ZM24.7484 27.7871C24.5861 26.9665 24.501 26.1182 24.501 25.25C24.501 24.3818 24.5861 23.5335 24.7484 22.7129L26.9556 23.1496C26.8216 23.8271 26.751 24.5292 26.751 25.25C26.751 25.9708 26.8216 26.6729 26.9556 27.3504L24.7484 27.7871ZM26.6906 18.0271L28.5603 19.2789C29.3457 18.1056 30.3563 17.095 31.5296 16.3095L30.2779 14.4399C28.8602 15.3889 27.6397 16.6095 26.6906 18.0271ZM34.9637 12.4977L35.4003 14.7049C36.0778 14.5709 36.7799 14.5002 37.5007 14.5002C38.2215 14.5002 38.9236 14.5709 39.6011 14.7049L40.0378 12.4977C39.2172 12.3354 38.3689 12.2502 37.5007 12.2502C36.6325 12.2502 35.7842 12.3354 34.9637 12.4977ZM44.7236 14.4399L43.4719 16.3095C44.6451 17.095 45.6557 18.1056 46.4412 19.2789L48.3109 18.0271C47.3618 16.6095 46.1412 15.3889 44.7236 14.4399Z" fill="white"/>
<path fill-rule="evenodd" clip-rule="evenodd" d="M0 5C0 2.51472 2.01472 0.5 4.5 0.5H70.5C72.9853 0.5 75 2.51472 75 5V48.5C75 50.9853 72.9853 53 70.5 53H4.5C2.01472 53 0 50.9853 0 48.5V5ZM4.5 3.5C3.67157 3.5 3 4.17157 3 5V48.5C3 49.3284 3.67157 50 4.5 50H70.5C71.3284 50 72 49.3284 72 48.5V5C72 4.17157 71.3284 3.5 70.5 3.5H4.5Z" fill="#9BF9FF"/>
<path opacity="0.4" fill-rule="evenodd" clip-rule="evenodd" d="M6 8C6 7.17157 6.67157 6.5 7.5 6.5H67.5C68.3284 6.5 69 7.17157 69 8V42.5C69 43.3284 68.3284 44 67.5 44H7.5C6.67157 44 6 43.3284 6 42.5V8ZM9 9.5V41H66V9.5H9Z" fill="#9BF9FF"/>
<path fill-rule="evenodd" clip-rule="evenodd" d="M10.2875 57.41C10.8357 56.5329 11.7971 56 12.8315 56H25.5001C26.3285 56 27.0001 56.6716 27.0001 57.5C27.0001 58.3284 26.3285 59 25.5001 59L12.8315 59L7.20646 68H67.7937L62.1687 59H50.2501C49.4217 59 48.7501 58.3284 48.7501 57.5C48.7501 56.6716 49.4217 56 50.2501 56H62.1687C63.2031 56 64.1645 56.5329 64.7127 57.41L70.3377 66.41C71.5866 68.4081 70.15 71 67.7937 71H7.20646C4.85015 71 3.41362 68.4081 4.66246 66.41L10.2875 57.41Z" fill="#9BF9FF"/>
<path fill-rule="evenodd" clip-rule="evenodd" d="M27.3638 50.0448C28.1675 50.2457 28.6561 51.0601 28.4552 51.8638L25.9212 62L49.0788 62L46.5448 51.8638C46.3439 51.0601 46.8325 50.2457 47.6362 50.0448C48.4399 49.8439 49.2543 50.3325 49.4552 51.1362L51.9893 61.2724C52.4626 63.1658 51.0305 65 49.0788 65H25.9212C23.9694 65 22.5374 63.1658 23.0107 61.2724L25.5448 51.1362C25.7457 50.3325 26.5601 49.8439 27.3638 50.0448Z" fill="#9BF9FF"/>
<path opacity="0.4" d="M39 47C39 47.8284 38.3284 48.5 37.5 48.5C36.6716 48.5 36 47.8284 36 47C36 46.1716 36.6716 45.5 37.5 45.5C38.3284 45.5 39 46.1716 39 47Z" fill="#9BF9FF"/>
</svg>
