<svg width="75" height="76" viewBox="0 0 75 76" fill="none" xmlns="http://www.w3.org/2000/svg">
<path fill-rule="evenodd" clip-rule="evenodd" d="M26.677 26.4636C27.0403 27.2081 26.7313 28.1061 25.9868 28.4695C22.1117 30.3606 19.9672 33.7289 18.9076 37.611C17.8472 41.4957 17.9091 45.7953 18.4091 49.3055C18.4138 49.3066 18.4188 49.3077 18.4243 49.3088C18.4874 49.3212 18.5712 49.3202 18.6563 49.2959C18.7383 49.2725 18.8016 49.2334 18.846 49.1887C22.2026 45.8126 26.3753 45.2016 28.5588 45.4532C29.3818 45.5481 29.9721 46.2921 29.8772 47.1151C29.7824 47.938 29.0384 48.5283 28.2154 48.4335C26.7934 48.2696 23.5821 48.68 20.9735 51.3039C20.1113 52.1711 18.895 52.4584 17.8466 52.2527C16.7631 52.04 15.6563 51.2337 15.4492 49.7991C14.9044 46.0256 14.8034 41.2543 16.0135 36.821C17.2308 32.361 19.8105 28.1454 24.6711 25.7734C25.4156 25.4101 26.3137 25.7191 26.677 26.4636Z" fill="#9BF9FF"/>
<path fill-rule="evenodd" clip-rule="evenodd" d="M48.4461 26.4636C48.0827 27.2081 48.3917 28.1061 49.1362 28.4695C53.0114 30.3606 55.1558 33.7289 56.2155 37.611C57.2758 41.4957 57.2139 45.7953 56.714 49.3055C56.7093 49.3066 56.7042 49.3077 56.6987 49.3088C56.6356 49.3212 56.5518 49.3202 56.4668 49.2959C56.3847 49.2725 56.3215 49.2334 56.277 49.1887C52.9205 45.8126 48.7477 45.2016 46.5643 45.4532C45.7413 45.5481 45.151 46.2921 45.2458 47.1151C45.3407 47.938 46.0847 48.5283 46.9077 48.4335C48.3297 48.2696 51.5409 48.68 54.1496 51.3039C55.0118 52.1711 56.228 52.4584 57.2764 52.2527C58.36 52.04 59.4667 51.2337 59.6739 49.7991C60.2186 46.0256 60.3197 41.2543 59.1096 36.821C57.8922 32.361 55.3125 28.1454 50.452 25.7734C49.7075 25.4101 48.8094 25.7191 48.4461 26.4636Z" fill="#9BF9FF"/>
<path opacity="0.4" fill-rule="evenodd" clip-rule="evenodd" d="M74.8759 75.25H0.0615234C0.799671 69.3305 5.84926 64.75 11.9687 64.75C15.4856 64.75 18.6492 66.263 20.8441 68.6735C22.2673 68.0786 23.8296 67.75 25.4687 67.75C25.7579 67.75 26.0447 67.7602 26.3287 67.7803C28.1013 63.3665 32.421 60.25 37.4687 60.25C42.5163 60.25 46.8361 63.3665 48.6087 67.7803C48.8927 67.7602 49.1795 67.75 49.4687 67.75C51.1077 67.75 52.67 68.0786 54.0933 68.6735C56.2881 66.263 59.4517 64.75 62.9687 64.75C69.0881 64.75 74.1377 69.3305 74.8759 75.25Z" fill="#9BF9FF"/>
<path fill-rule="evenodd" clip-rule="evenodd" d="M38.5101 0.588451L37.561 1.75L36.6119 0.588451C37.1642 0.137183 37.9578 0.137183 38.5101 0.588451ZM46.0051 49.3214L47.4221 49.8133C47.2661 50.2628 46.9061 50.6116 46.4519 50.7533L46.0051 49.3214ZM44.8258 48.1046C44.9692 47.6533 45.1688 47.0045 45.4004 46.1931C45.8791 44.5168 46.493 42.1528 47.0322 39.4096C48.118 33.886 48.8691 26.9783 47.7135 21.0663C46.6671 15.7133 43.9093 11.1729 41.3634 7.9391C40.0959 6.32909 38.8956 5.06158 38.0159 4.19988C37.8525 4.03978 37.7003 3.89386 37.561 3.76253C37.4217 3.89386 37.2695 4.03978 37.1061 4.19988C36.2264 5.06158 35.0261 6.32909 33.7586 7.9391C31.2127 11.1729 28.4549 15.7133 27.4085 21.0663C26.2529 26.9783 27.004 33.886 28.0898 39.4096C28.629 42.1528 29.2429 44.5168 29.7216 46.1931C29.9532 47.0045 30.1528 47.6533 30.2962 48.1046C30.3201 48.1113 30.3444 48.1182 30.3693 48.1252C30.8824 48.2694 31.6009 48.4618 32.4203 48.6539C34.0911 49.0457 36.0617 49.4071 37.561 49.4071C39.0603 49.4071 41.0309 49.0457 42.7017 48.6539C43.5211 48.4618 44.2396 48.2694 44.7527 48.1252C44.7776 48.1182 44.8019 48.1113 44.8258 48.1046ZM29.1169 49.3214C27.6999 49.8133 27.6997 49.8129 27.6996 49.8126L27.6981 49.8082L27.6944 49.7973L27.681 49.7581C27.6694 49.7244 27.6529 49.6753 27.6316 49.6117C27.5892 49.4844 27.5281 49.2986 27.4518 49.0591C27.2991 48.5803 27.0852 47.8865 26.8368 47.0168C26.3405 45.2784 25.7049 42.8311 25.1461 39.9883C24.0358 34.3398 23.1966 26.9761 24.4642 20.4908C25.6348 14.5024 28.6892 9.52845 31.4014 6.08338C32.763 4.35393 34.0532 2.99082 35.0068 2.05677C35.484 1.58931 35.8781 1.2281 36.1563 0.980995C36.2954 0.857408 36.4057 0.76226 36.4829 0.696533C36.5216 0.663666 36.552 0.638145 36.5736 0.620093L36.5995 0.598628L36.6074 0.592123L36.6101 0.589932L36.6119 0.588451C36.6123 0.58811 36.6119 0.588451 37.561 1.75C38.5101 0.588451 38.5097 0.58811 38.5101 0.588451L38.5146 0.592123L38.5225 0.598628L38.5484 0.620093C38.57 0.638145 38.6004 0.663666 38.6391 0.696533C38.7163 0.76226 38.8266 0.857408 38.9657 0.980995C39.2439 1.2281 39.638 1.58931 40.1153 2.05677C41.0688 2.99082 42.359 4.35393 43.7206 6.08338C46.4328 9.52845 49.4872 14.5024 50.6578 20.4908C51.9254 26.9761 51.0862 34.3398 49.9759 39.9883C49.4171 42.8311 48.7815 45.2784 48.2852 47.0168C48.0368 47.8865 47.8229 48.5803 47.6702 49.0591C47.5939 49.2986 47.5328 49.4844 47.4904 49.6117C47.4691 49.6753 47.4526 49.7244 47.441 49.7581L47.4276 49.7973L47.4228 49.8115C47.4226 49.8119 47.4221 49.8133 46.0051 49.3214C46.4519 50.7533 46.4521 50.7533 46.4519 50.7533L46.45 50.7539L46.4461 50.7551L46.433 50.7592L46.3852 50.7739C46.3441 50.7864 46.2847 50.8044 46.2085 50.8271C46.0563 50.8725 45.8372 50.9366 45.5645 51.0132C45.0198 51.1663 44.2579 51.3704 43.3866 51.5747C41.6761 51.9757 39.4246 52.4071 37.561 52.4071C35.6974 52.4071 33.4459 51.9757 31.7354 51.5747C30.8641 51.3704 30.1022 51.1663 29.5575 51.0132C29.2848 50.9366 29.0657 50.8725 28.9135 50.8271C28.8373 50.8044 28.7779 50.7864 28.7368 50.7739L28.689 50.7592L28.6759 50.7551L28.672 50.7539L28.6704 50.7534C28.6702 50.7534 28.6701 50.7533 29.1169 49.3214ZM29.1169 49.3214L28.6704 50.7534C28.2162 50.6117 27.8556 50.262 27.6996 49.8126L29.1169 49.3214Z" fill="#9BF9FF"/>
<path fill-rule="evenodd" clip-rule="evenodd" d="M37.5606 28.8786C39.1797 28.8786 40.6769 27.4857 40.6769 25.5357C40.6769 23.5857 39.1797 22.1929 37.5606 22.1929C35.9415 22.1929 34.4443 23.5857 34.4443 25.5357C34.4443 27.4857 35.9415 28.8786 37.5606 28.8786ZM37.5606 31.8786C40.9385 31.8786 43.6769 29.0388 43.6769 25.5357C43.6769 22.0327 40.9385 19.1929 37.5606 19.1929C34.1827 19.1929 31.4443 22.0327 31.4443 25.5357C31.4443 29.0388 34.1827 31.8786 37.5606 31.8786Z" fill="white"/>
<path fill-rule="evenodd" clip-rule="evenodd" d="M31.4443 49.4072C32.2728 49.4072 32.9443 50.0788 32.9443 50.9072V54.8793C33.058 54.9391 33.1949 55.0045 33.357 55.0717C34.1117 55.3848 35.4428 55.7501 37.5606 55.7501C39.6784 55.7501 41.0095 55.3848 41.7642 55.0717C41.9263 55.0045 42.0632 54.9391 42.1769 54.8793V50.9072C42.1769 50.0788 42.8484 49.4072 43.6769 49.4072C44.5053 49.4072 45.1769 50.0788 45.1769 50.9072V55.6644C45.1769 56.0528 45.0262 56.426 44.7566 56.7056L43.6769 55.6644C44.7566 56.7056 44.7559 56.7064 44.7551 56.7072L44.7535 56.7088L44.7502 56.7122L44.7432 56.7193L44.7272 56.7353C44.7157 56.7467 44.7025 56.7595 44.6875 56.7736C44.6576 56.8018 44.6207 56.8353 44.5763 56.8731C44.4876 56.9489 44.3696 57.042 44.2193 57.146C43.9181 57.3542 43.4904 57.6035 42.9137 57.8427C41.757 58.3226 40.03 58.7501 37.5606 58.7501C35.0912 58.7501 33.3642 58.3226 32.2075 57.8427C31.6308 57.6035 31.2031 57.3542 30.9019 57.146C30.7516 57.042 30.6335 56.9489 30.5449 56.8731C30.5005 56.8353 30.4636 56.8018 30.4337 56.7736C30.4187 56.7595 30.4055 56.7467 30.394 56.7353L30.378 56.7193L30.371 56.7122L30.3677 56.7088L30.3661 56.7072C30.3653 56.7064 30.3646 56.7056 31.4443 55.6644L30.3646 56.7056C30.095 56.426 29.9443 56.0528 29.9443 55.6644V50.9072C29.9443 50.0788 30.6159 49.4072 31.4443 49.4072Z" fill="#9BF9FF"/>
<path fill-rule="evenodd" clip-rule="evenodd" d="M37.5615 63.25C38.39 63.25 39.0615 63.9216 39.0615 64.75L39.0615 72.25C39.0615 73.0784 38.39 73.75 37.5615 73.75C36.7331 73.75 36.0615 73.0784 36.0615 72.25L36.0615 64.75C36.0615 63.9216 36.7331 63.25 37.5615 63.25Z" fill="white"/>
<path fill-rule="evenodd" clip-rule="evenodd" d="M31.5615 60.25C32.39 60.25 33.0615 60.9216 33.0615 61.75C33.0615 63.9454 33.0152 65.7642 32.8534 67.2449C32.6933 68.7108 32.4078 69.982 31.844 71.0052C31.2436 72.0948 30.3721 72.8234 29.2368 73.2457C28.1729 73.6415 26.9251 73.75 25.5615 73.75C24.7331 73.75 24.0615 73.0784 24.0615 72.25C24.0615 71.4216 24.7331 70.75 25.5615 70.75C26.823 70.75 27.6377 70.6397 28.1909 70.434C28.6729 70.2547 28.9732 69.9989 29.2165 69.5573C29.4965 69.0493 29.7266 68.2424 29.8712 66.9191C30.0141 65.6108 30.0615 63.9296 30.0615 61.75C30.0615 60.9216 30.7331 60.25 31.5615 60.25Z" fill="white"/>
<path fill-rule="evenodd" clip-rule="evenodd" d="M43.5615 60.25C42.7331 60.25 42.0615 60.9216 42.0615 61.75C42.0615 63.9454 42.1079 65.7642 42.2696 67.2449C42.4297 68.7108 42.7152 69.982 43.279 71.0052C43.8794 72.0948 44.751 72.8234 45.8862 73.2457C46.9502 73.6415 48.198 73.75 49.5615 73.75C50.39 73.75 51.0615 73.0784 51.0615 72.25C51.0615 71.4216 50.39 70.75 49.5615 70.75C48.3001 70.75 47.4854 70.6397 46.9321 70.434C46.4502 70.2547 46.1499 69.9989 45.9065 69.5573C45.6266 69.0493 45.3964 68.2424 45.2519 66.9191C45.1089 65.6108 45.0615 63.9296 45.0615 61.75C45.0615 60.9216 44.39 60.25 43.5615 60.25Z" fill="white"/>
</svg>
